<svg width="17" height="22" viewBox="0 0 17 24" fill="none" xmlns="http://www.w3.org/2000/svg">
<path d="M3.75 12.7707V22.2277C3.75 22.4221 3.68715 22.5828 3.60674 22.6855C3.52655 22.7878 3.44911 22.8125 3.4 22.8125H0.85C0.800889 22.8125 0.723449 22.7878 0.643262 22.6855C0.562851 22.5828 0.5 22.4221 0.5 22.2277V1.61607C0.5 1.42169 0.562851 1.26092 0.643262 1.1583C0.723449 1.05596 0.800889 1.03125 0.85 1.03125H3.4C3.44911 1.03125 3.52655 1.05596 3.60674 1.1583C3.68715 1.26092 3.75 1.42169 3.75 1.61607V11.0189V11.1872V12.6023V12.7707ZM4.65933 12.3151L4.36444 11.8948L4.65933 11.4744C4.68484 11.438 4.71323 11.4068 4.74391 11.3807L4.74394 11.3807L4.74855 11.3767L16.0111 1.55904L16.0222 1.54931L16.0328 1.53894C16.0972 1.47565 16.1419 1.46682 16.161 1.4653C16.1831 1.46355 16.2194 1.46825 16.2681 1.50122C16.3709 1.57088 16.5 1.75613 16.5 2.05V21.7938C16.5 22.0876 16.3709 22.2729 16.2681 22.3425C16.2194 22.3755 16.1831 22.3802 16.161 22.3784C16.1419 22.3769 16.0972 22.3681 16.0328 22.3048L16.0227 22.2949L16.0121 22.2856L4.74958 12.4137L4.74961 12.4137L4.74391 12.4088C4.71323 12.3827 4.68484 12.3515 4.65933 12.3151Z" fill="#FCFCFC" stroke="#FCFCFC"/>
</svg>
