<svg width="17" height="22" viewBox="0 0 17 24" fill="none" xmlns="http://www.w3.org/2000/svg">
<path d="M12.3406 11.4742L12.6354 11.8948L12.3406 12.3153C12.3152 12.3515 12.2868 12.3827 12.2561 12.4088L12.2561 12.4088L12.2504 12.4137L0.987923 22.2856L0.9773 22.2949L0.967219 22.3048C0.902754 22.3681 0.858063 22.3769 0.838973 22.3784C0.816895 22.3802 0.780618 22.3755 0.731924 22.3425C0.629063 22.2729 0.5 22.0876 0.5 21.7938V2.05C0.5 1.75613 0.629063 1.57088 0.731924 1.50122C0.780618 1.46825 0.816895 1.46355 0.838973 1.4653C0.858063 1.46682 0.902754 1.47565 0.967219 1.53894L0.977787 1.54931L0.988951 1.55904L12.2515 11.3767L12.2514 11.3767L12.2561 11.3807C12.2868 11.4068 12.3152 11.438 12.3406 11.4742ZM13.25 11.1872V11.0179V1.61607C13.25 1.42169 13.3129 1.26092 13.3933 1.1583C13.4734 1.05596 13.5509 1.03125 13.6 1.03125H16.15C16.1991 1.03125 16.2766 1.05596 16.3567 1.1583C16.4371 1.26092 16.5 1.42169 16.5 1.61607V22.2277C16.5 22.4221 16.4371 22.5828 16.3567 22.6855C16.2766 22.7878 16.1991 22.8125 16.15 22.8125H13.6C13.5509 22.8125 13.4734 22.7878 13.3933 22.6855C13.3129 22.5828 13.25 22.4221 13.25 22.2277V12.7716V12.6023V11.1872Z" fill="#FCFCFC" stroke="#FCFCFC"/>
</svg>
