<svg width="15" height="15" viewBox="0 0 15 15" fill="none" xmlns="http://www.w3.org/2000/svg">
<path d="M13.7562 2.52244L13.7671 2.53333L13.7752 2.54144L13.8003 2.56662L13.8336 2.59992L13.8502 2.61651L13.9 2.66644L13.7562 2.52244ZM13.7562 2.52244L13.815 2.50166L13.7562 2.52244ZM13.7556 2.52177L13.8161 2.5006L13.8932 2.47361L13.9 2.47123L13.913 2.46667L13.7556 2.52177ZM13.7556 2.52177L13.7169 2.48306L13.7006 2.46667L13.6801 2.44615L13.6787 2.44748C13.6755 2.45069 13.6684 2.4577 13.6598 2.46667C13.6516 2.4752 13.642 2.4855 13.633 2.49601C13.6248 2.50548 13.6146 2.51794 13.6034 2.53333C13.5924 2.54843 13.5806 2.56636 13.5689 2.58709M13.7556 2.52177L13.5689 2.58709M13.5689 2.58709L13.54 2.59721C13.5378 2.58478 13.5363 2.57338 13.5353 2.56329C13.5341 2.55134 13.5336 2.54005 13.5334 2.53333C13.5333 2.52961 13.5333 2.5273 13.5333 2.52707C13.5333 2.52683 13.5333 2.5287 13.5333 2.53333V2.59955L13.5255 2.60228C13.5104 2.55914 13.5046 2.52188 13.5021 2.49791C13.5015 2.49204 13.5011 2.48696 13.5008 2.4828C13.5003 2.47564 13.5001 2.46992 13.5001 2.46667C13.5 2.46533 13.5 2.4644 13.5 2.46397L13.5 2.46309C13.5 2.46309 13.5 2.46397 13.5 2.46667V2.5V2.57158C13.493 2.55409 13.487 2.53614 13.4821 2.51786C13.472 2.47968 13.4667 2.44005 13.4667 2.4V2.50637C13.4509 2.4673 13.4435 2.43346 13.4396 2.41031C13.4369 2.39432 13.4354 2.37989 13.4345 2.36751C13.4341 2.36124 13.4338 2.35526 13.4336 2.3496L13.4334 2.34129L13.4333 2.33726L13.4333 2.33528L13.4333 2.3343L13.4333 2.33403L13.5689 2.58709ZM12.0536 3.68689L12.9071 2.83333H11.7H9.8C8.96717 2.83333 8.13449 3.28391 7.70592 4.00713L4.27886 9.49709C3.73124 10.33 2.85152 10.8333 1.86667 10.8333H0.666667C0.576143 10.8333 0.5 10.7572 0.5 10.6667C0.5 10.5761 0.576143 10.5 0.666667 10.5H1.86667C2.72936 10.5 3.52886 10.0857 3.99198 9.32956L7.42113 3.83626C7.96874 3.00339 8.84847 2.5 9.83333 2.5H11.7333H12.9404L12.0869 1.64645L11.2202 0.77978L10.8667 1.13333L11.2202 0.77978C11.1777 0.737222 11.1667 0.696552 11.1667 0.666667C11.1667 0.636781 11.1777 0.596111 11.2202 0.553554L10.8667 0.2L11.2202 0.553553C11.2628 0.510996 11.3034 0.5 11.3333 0.5C11.3632 0.5 11.4039 0.510996 11.4464 0.553553L13.4464 2.55355L13.4667 2.57377V2.60737L13.5 2.64064V2.67378L13.5168 2.69056C13.512 2.70096 13.5073 2.71189 13.5029 2.72335L13.4464 2.77978L11.4464 4.77978C11.4039 4.82234 11.3632 4.83333 11.3333 4.83333C11.3109 4.83333 11.2589 4.82678 11.1711 4.76241C11.1415 4.72628 11.1333 4.69246 11.1333 4.66667C11.1333 4.63678 11.1443 4.59611 11.1869 4.55355L12.0536 3.68689ZM13.5261 2.60386L13.5333 2.60129L13.5318 2.6191C13.5298 2.61414 13.5279 2.60906 13.5261 2.60386ZM13.5403 2.59883L13.5678 2.58909C13.5608 2.60181 13.5538 2.61555 13.5472 2.63032C13.5444 2.61926 13.5421 2.60872 13.5403 2.59883ZM3.87077 3.82383C3.39665 3.18217 2.65826 2.83334 1.86667 2.83334H0.666667C0.591985 2.83334 0.5 2.77331 0.5 2.63334C0.5 2.54282 0.576142 2.46667 0.666667 2.46667H1.86667C2.72424 2.46667 3.51614 2.84782 4.06273 3.5199L3.87077 3.82383ZM13.4333 10.6071V10.7929L11.4464 12.7798C11.4039 12.8223 11.3632 12.8333 11.3333 12.8333C11.3109 12.8333 11.2589 12.8268 11.1711 12.7624C11.1415 12.7263 11.1333 12.6925 11.1333 12.6667C11.1333 12.6368 11.1443 12.5961 11.1869 12.5536L12.0536 11.6869L12.9071 10.8333H11.7H9.8C8.94464 10.8333 8.15461 10.4541 7.60817 9.7853L7.8199 9.46347C8.29364 10.1132 9.03653 10.4667 9.83333 10.4667H11.7333H12.9404L12.0869 9.61311L11.2202 8.74645C11.1777 8.70389 11.1667 8.66322 11.1667 8.63333C11.1667 8.60345 11.1777 8.56278 11.2202 8.52022C11.2628 8.47766 11.3034 8.46667 11.3333 8.46667C11.3632 8.46667 11.4039 8.47766 11.4464 8.52022L13.4333 10.5071V10.6071Z" fill="#FCFCFC" stroke="#FCFCFC"/>
</svg>
