<svg width="15" height="15" viewBox="0 0 15 15" fill="none" xmlns="http://www.w3.org/2000/svg">
<path fill-rule="evenodd" clip-rule="evenodd" d="M10.5286 0.19526C10.7889 -0.0650868 11.2111 -0.0650868 11.4714 0.19526L13.4714 2.19526C13.7317 2.45561 13.7317 2.87772 13.4714 3.13807L11.4714 5.13807C11.2111 5.39842 10.7889 5.39842 10.5286 5.13807C10.2683 4.87772 10.2683 4.45561 10.5286 4.19526L11.3905 3.33333H5.33333C3.13485 3.33333 1.33333 5.13485 1.33333 7.33333C1.33333 7.70153 1.03485 8 0.666667 8C0.298477 8 0 7.70153 0 7.33333C0 4.39848 2.39848 2 5.33333 2H11.3905L10.5286 1.13807C10.2683 0.87772 10.2683 0.455614 10.5286 0.19526ZM15.3333 7.33333C15.3333 6.96513 15.0349 6.66667 14.6667 6.66667C14.2985 6.66667 14 6.96513 14 7.33333C14 9.5318 12.1985 11.3333 10 11.3333H3.94281L4.80474 10.4714C5.06509 10.2111 5.06509 9.78893 4.80474 9.5286C4.54439 9.26827 4.12228 9.26827 3.86193 9.5286L1.86193 11.5286C1.60158 11.7889 1.60158 12.2111 1.86193 12.4714L3.86193 14.4714C4.12228 14.7317 4.54439 14.7317 4.80474 14.4714C5.06509 14.2111 5.06509 13.7889 4.80474 13.5286L3.94281 12.6667H10C12.9349 12.6667 15.3333 10.2682 15.3333 7.33333Z" fill="#FCFCFC"/>
</svg>
