<svg width="23" height="20" viewBox="0 0 23 20" fill="none" xmlns="http://www.w3.org/2000/svg">
<path d="M16.2334 5.56302L16.2334 5.56305C16.0196 5.73792 15.9881 6.05294 16.163 6.26665C16.994 7.28227 17.5 8.57166 17.5 10C17.5 11.4324 16.9913 12.771 16.163 13.7834C15.9882 13.9971 16.0196 14.3121 16.2334 14.487C16.447 14.6618 16.762 14.6304 16.937 14.4167L16.2334 5.56302ZM16.2334 5.56302C16.4471 5.38821 16.7621 5.41964 16.9371 5.63344M16.2334 5.56302L16.9371 5.63344M16.9371 5.63344C17.9061 6.81789 18.5 8.32848 18.5 10M16.9371 5.63344L18.5 10M18.5 10C18.5 11.6675 17.9087 13.2289 16.9371 14.4166L18.5 10ZM13.226 0.553988L13.226 0.554015C13.3941 0.639177 13.5 0.811562 13.5 1.00001V19C13.5 19.1884 13.3941 19.3609 13.2261 19.446L13.226 19.446C13.0579 19.5312 12.8562 19.5146 12.7043 19.4032L12.7043 19.4032L5.41974 14.0612L5.31203 13.9822L5.17927 13.9675L2.75182 13.6978L2.75183 13.6977L2.74542 13.6971C1.4291 13.568 0.5 12.4417 0.5 11.2V8.80001C0.5 7.49161 1.49526 6.43056 2.74524 6.30299L2.74524 6.30301L2.7497 6.30252L5.17928 6.03257L5.31203 6.01782L5.41974 5.93883L12.7043 0.596811C12.8562 0.485368 13.058 0.468844 13.226 0.553988ZM12.5 2.97342V1.98671L11.7043 2.57021L5.79568 6.90321C5.7251 6.95497 5.64219 6.98728 5.55524 6.99694L5.55521 6.99694L2.85521 7.29694L2.85493 7.29698L2.8521 7.29729L2.84975 7.29753C2.10086 7.37241 1.5 8.01135 1.5 8.80001V11.2C1.5 11.9606 2.07159 12.6273 2.84538 12.7021C2.84605 12.7021 2.84673 12.7022 2.84741 12.7023L2.85738 12.7033L5.55521 13.003L5.55529 13.0031C5.64212 13.0127 5.72503 13.045 5.79568 13.0968L11.7043 17.4298L12.5 18.0133V17.0266V2.97342ZM18.9117 2.53186L18.9117 2.53181C19.115 2.34502 19.4313 2.35834 19.6181 2.56169C21.4004 4.50114 22.5 7.12092 22.5 10C22.5 12.8791 21.4004 15.4988 19.6181 17.4383L19.6181 17.4383C19.4313 17.6417 19.115 17.655 18.9117 17.4682L18.9117 17.4681C18.7083 17.2813 18.695 16.965 18.8818 16.7618L18.8819 16.7617C20.4997 15.0012 21.5 12.6209 21.5 10C21.5 7.37911 20.4997 4.99889 18.8819 3.23832L18.5137 3.57663L18.8819 3.23831C18.695 3.03496 18.7084 2.71868 18.9117 2.53186Z" fill="#FCFCFC" stroke="#FCFCFC"/>
</svg>
