<svg width="16" height="16" viewBox="0 0 16 16" fill="none" xmlns="http://www.w3.org/2000/svg">
<g clip-path="url(#clip0_216_31)">
<path d="M11.5926 12.0172L11.2833 11.7078L10.9356 11.9735C10.0103 12.6803 8.85482 13.1 7.59998 13.1C4.56241 13.1 2.09998 10.6375 2.09998 7.59998C2.09998 4.56241 4.56241 2.09998 7.59998 2.09998C10.6375 2.09998 13.1 4.56241 13.1 7.59998C13.1 8.85497 12.6802 10.0105 11.9732 10.9359L11.7076 11.2835L12.017 11.593L14.2118 13.7878L14.2118 13.7878C14.3289 13.905 14.3289 14.095 14.2118 14.2121C14.0946 14.3292 13.9047 14.3292 13.7875 14.2121L11.5926 12.0172ZM7.59998 2.69998C4.89378 2.69998 2.69998 4.89378 2.69998 7.59998C2.69998 10.3062 4.89378 12.5 7.59998 12.5C10.3062 12.5 12.5 10.3062 12.5 7.59998C12.5 4.89378 10.3062 2.69998 7.59998 2.69998Z" fill="#FCFCFC" stroke="#FCFCFC"/>
</g>
<defs>
<clipPath id="clip0_216_31">
<rect width="16" height="16" fill="white"/>
</clipPath>
</defs>
</svg>
