<svg width="24" height="21" viewBox="0 0 24 21" fill="none" xmlns="http://www.w3.org/2000/svg">
<path d="M2.60674 10.9885C0.464419 8.70855 0.464419 5.01712 2.60674 2.73713C3.70538 1.54285 5.07865 1 6.50688 1C7.60551 1 8.75905 1.37999 9.69289 2.0857C10.0774 2.41141 10.407 2.79142 10.7366 3.17142L12.055 4.90856L13.3733 3.17142C13.7029 2.73713 14.0325 2.35713 14.417 2.0857C15.2959 1.32571 16.3946 1 17.5481 1C18.9213 1 20.3496 1.54285 21.3933 2.73713C23.5356 5.01712 23.5356 8.70855 21.3933 10.9885L12.7691 19.6742C12.3845 20.1086 11.6704 20.1086 11.2859 19.6742L2.60674 10.9885Z" stroke="#FCFCFC" stroke-width="2" stroke-miterlimit="10" stroke-linecap="round" stroke-linejoin="round"/>
</svg>
