<svg width="20" height="20" viewBox="0 0 20 20" fill="none" xmlns="http://www.w3.org/2000/svg">
<path d="M1.975 7.13333C0.675 5.73333 0.675 3.46666 1.975 2.06666C2.64167 1.33333 3.475 1 4.34167 1C5.00834 1 5.70833 1.23333 6.275 1.66666C6.50833 1.86666 6.70834 2.1 6.90834 2.33333L7.70834 3.4L8.50833 2.33333C8.70833 2.06666 8.90833 1.83333 9.14167 1.66666C9.67499 1.2 10.3417 1 11.0417 1C11.875 1 12.7417 1.33333 13.375 2.06666C14.675 3.46666 14.675 5.73333 13.375 7.13333L8.14167 12.4667C7.90833 12.7334 7.475 12.7334 7.24167 12.4667L1.975 7.13333Z" stroke="#FCFCFC" stroke-width="2" stroke-miterlimit="10" stroke-linecap="round" stroke-linejoin="round"/>
</svg>
